<svg xmlns="http://www.w3.org/2000/svg" viewBox="0 0 169.14 169.01"><defs><style>.cls-1{fill:#7546b6;}</style></defs><g id="Layer_2" data-name="Layer 2"><g id="Layer_1-2" data-name="Layer 1"><path class="cls-1" d="M0,81.17c.37-1.71.64-3.45,1.14-5.11C4.61,64.57,12.08,56.89,23.67,53.87c11.79-3.06,22.21,0,30.85,8.66a2.07,2.07,0,0,0,3,.44q26.18-14.36,52.4-28.59c1-.53,1.46-1,1.29-2.25C109.18,17,120.78,2.06,136,.24c15.85-1.91,29.52,7.9,32.64,23.41,3.22,16.06-8.47,32.25-24.75,34.09-12,1.35-21.37-3.14-28.23-13l-.58-.8s-.1,0-.32-.15l-8.26,4.49Q84.68,60.16,62.88,72c-1.19.64-1.62,1.17-1.11,2.62a29.83,29.83,0,0,1,.06,19.59c-.17.52-.32,1-.55,1.78l53.55,29.19c1-1.38,1.93-2.76,3-4,8.24-9.16,18.46-12.52,30.26-9.09s18.95,11.77,20.66,24c2.23,16-8.81,30.25-24.82,32.55a5.22,5.22,0,0,0-.93.28h-6c-.47-.11-.94-.26-1.43-.33-15.09-2.05-26.45-16.83-24.43-31.85a1.82,1.82,0,0,0-1.12-2.19Q83.8,120.36,57.55,106a2.08,2.08,0,0,0-3,.43c-8.63,8.65-19.05,11.74-30.84,8.67-11.6-3-19.06-10.7-22.54-22.18C.65,91.21.38,89.48,0,87.77Z"/></g></g></svg>